<mxfile host="65bd71144e">
    <diagram id="-Aao-U_pG-gRKe-bRrGe" name="Page-1">
        <mxGraphModel dx="1487" dy="483" grid="1" gridSize="10" guides="1" tooltips="1" connect="1" arrows="1" fold="1" page="1" pageScale="1" pageWidth="850" pageHeight="1100" background="#E6FFDD" math="0" shadow="0">
            <root>
                <mxCell id="0"/>
                <mxCell id="1" parent="0"/>
                <mxCell id="2" value="" style="rounded=0;whiteSpace=wrap;html=1;fillColor=#dae8fc;strokeColor=#6c8ebf;" parent="1" vertex="1">
                    <mxGeometry x="60" y="140" width="190" height="140" as="geometry"/>
                </mxCell>
                <mxCell id="3" value="Process" style="text;html=1;align=center;verticalAlign=middle;resizable=0;points=[];autosize=1;strokeColor=none;fillColor=none;" parent="1" vertex="1">
                    <mxGeometry x="120" y="110" width="70" height="30" as="geometry"/>
                </mxCell>
                <mxCell id="4" value="&lt;ul&gt;&lt;li&gt;Process ID&lt;/li&gt;&lt;li&gt;Data Segment&lt;/li&gt;&lt;li&gt;Text Segment&lt;/li&gt;&lt;li&gt;Call Stack&lt;/li&gt;&lt;li&gt;Heap&lt;/li&gt;&lt;/ul&gt;" style="text;strokeColor=none;fillColor=none;html=1;whiteSpace=wrap;verticalAlign=middle;overflow=hidden;" parent="1" vertex="1">
                    <mxGeometry x="70" y="144" width="140" height="132" as="geometry"/>
                </mxCell>
                <mxCell id="6" value="Apart from Call stack there is one more stack called Kernel Stack" style="text;html=1;align=center;verticalAlign=middle;resizable=0;points=[];autosize=1;strokeColor=none;fillColor=none;" parent="1" vertex="1">
                    <mxGeometry x="-30" y="330" width="370" height="30" as="geometry"/>
                </mxCell>
                <mxCell id="8" value="There are many other components describing a process." style="text;html=1;align=center;verticalAlign=middle;resizable=0;points=[];autosize=1;strokeColor=none;fillColor=none;" parent="1" vertex="1">
                    <mxGeometry x="-30" y="310" width="320" height="30" as="geometry"/>
                </mxCell>
                <mxCell id="10" value="" style="endArrow=none;html=1;strokeWidth=4;" parent="1" edge="1">
                    <mxGeometry width="50" height="50" relative="1" as="geometry">
                        <mxPoint x="420" y="320" as="sourcePoint"/>
                        <mxPoint x="420" y="110" as="targetPoint"/>
                    </mxGeometry>
                </mxCell>
                <mxCell id="11" value="" style="endArrow=none;html=1;" parent="1" edge="1">
                    <mxGeometry width="50" height="50" relative="1" as="geometry">
                        <mxPoint x="420" y="320" as="sourcePoint"/>
                        <mxPoint x="560" y="320" as="targetPoint"/>
                    </mxGeometry>
                </mxCell>
                <mxCell id="12" value="" style="endArrow=none;html=1;strokeWidth=4;" parent="1" edge="1">
                    <mxGeometry width="50" height="50" relative="1" as="geometry">
                        <mxPoint x="560" y="320" as="sourcePoint"/>
                        <mxPoint x="560" y="110" as="targetPoint"/>
                    </mxGeometry>
                </mxCell>
                <mxCell id="13" value="fun1( )" style="rounded=0;whiteSpace=wrap;html=1;fillColor=#ffe6cc;strokeColor=#d79b00;" parent="1" vertex="1">
                    <mxGeometry x="430" y="290" width="120" height="20" as="geometry"/>
                </mxCell>
                <mxCell id="14" value="fun2( )" style="rounded=0;whiteSpace=wrap;html=1;fillColor=#ffe6cc;strokeColor=#d79b00;" parent="1" vertex="1">
                    <mxGeometry x="430" y="260" width="120" height="20" as="geometry"/>
                </mxCell>
                <mxCell id="15" value="fun3( )" style="rounded=0;whiteSpace=wrap;html=1;fillColor=#ffe6cc;strokeColor=#d79b00;" parent="1" vertex="1">
                    <mxGeometry x="430" y="230" width="120" height="20" as="geometry"/>
                </mxCell>
                <mxCell id="16" value="fun4( )" style="rounded=0;whiteSpace=wrap;html=1;fillColor=#ffe6cc;strokeColor=#d79b00;" parent="1" vertex="1">
                    <mxGeometry x="430" y="200" width="120" height="20" as="geometry"/>
                </mxCell>
                <mxCell id="17" value="Stack&lt;div&gt;&lt;br&gt;&lt;/div&gt;" style="text;html=1;align=center;verticalAlign=middle;resizable=0;points=[];autosize=1;strokeColor=none;fillColor=none;" parent="1" vertex="1">
                    <mxGeometry x="465" y="323" width="50" height="40" as="geometry"/>
                </mxCell>
            </root>
        </mxGraphModel>
    </diagram>
</mxfile>